<svg xmlns="http://www.w3.org/2000/svg" version="1.1" xmlns:xlink="http://www.w3.org/1999/xlink" xmlns:svgjs="http://svgjs.dev/svgjs" width="100%" height="100%" viewBox="0 0 1000 600"><rect width="1000" height="600" x="0" y="0" fill="#ffffff"/><g><rect width="333.3333333333333" height="333.3333333333333" rx="13.333333333333334" ry="13.333333333333334" y="311.65139060928004" fill="#8aaae5" transform="matrix(0.4318845294992206,0,0,0.43188452949922074,0,93.42182209568381)" x="289.4293518066406"/><path d="M400.1546332645046 553.3180322665077L383.4745849889055 553.3180322665077L383.4745849889055 403.3180313476725L413.61308376846273 403.3180313476725L456.0960226075788 530.1345716668483L498.57896144669496 403.3180313476725L528.7174602262521 403.3180313476725L528.7174602262521 553.3180322665077L512.037411950653 553.3180322665077L512.037411950653 421.08198167728165L508.9964645213471 421.08198167728165L465.42962362822095 547.8985219964575L446.76242158693674 547.8985219964575L403.1955806938106 421.08198167728165L400.1546332645046 421.08198167728165L400.1546332645046 553.3180322665077Z " fill="#ffffff" transform="matrix(0.4318845294992206,0,0,0.43188452949922074,0,93.42182209568381)"/><path d="M721.5275313566732 467.5302624426571L721.5275313566732 551.0604499289398L706.0960222076508 551.0604499289398L706.0960222076508 448.18372226879006L721.3274932751118 448.18372226879006L721.3274932751118 455.38509320500054Q736.7590024241342 446.12618771558704 751.3617823781166 446.12618771558704L751.3617823781166 446.12618771558704Q770.5082844704223 446.12618771558704 778.1097315697555 456.61389856316345L778.1097315697555 456.61389856316345Q784.9110263428431 452.49882945675745 795.7130827471589 449.3267970205695Q806.5151391514746 446.12618771558704 814.7452773642866 446.12618771558704L814.7452773642866 446.12618771558704Q835.3206228963165 446.12618771558704 842.4076863573491 457.1282822014642Q849.5233266871761 468.13037668734125 849.5233266871761 496.7358223506218L849.5233266871761 496.7358223506218L849.5233266871761 551.0604499289398L834.0918175381537 551.0604499289398L834.0918175381537 497.1644753825391Q834.0918175381537 475.7604006554691 829.9767484317476 467.84460799939643Q825.8616793253417 459.9002384745293 812.4877047295222 459.9002384745293L812.4877047295222 459.9002384745293Q805.6864099564345 459.9002384745293 798.4850390202241 461.87204242134885Q791.2836680840136 463.8152694993739 787.368637059169 465.6727659710155L787.368637059169 465.6727659710155L783.4821829031189 467.5302624426571Q786.1398317010061 474.3029803469503 786.1398317010061 497.56455154566186L786.1398317010061 497.56455154566186L786.1398317010061 551.0604499289398L770.7083225519837 551.0604499289398L770.7083225519837 497.9646277087847Q770.7083225519837 475.7604006554691 766.7075609207557 467.84460799939643Q762.678222420733 459.9002384745293 749.1042097433522 459.9002384745293L749.1042097433522 459.9002384745293Q742.5315299206204 459.9002384745293 735.6445045411492 461.87204242134885Q728.7289022928837 463.8152694993739 725.042486218395 465.6727659710155L725.042486218395 465.6727659710155L721.5275313566732 467.5302624426571ZM950.7425959572456 479.24677864839634L950.7425959572456 479.24677864839634L950.7425959572456 531.9139478366341Q951.3712870707243 539.5439718047619 962.6877271133408 540.9728152444861L962.6877271133408 540.9728152444861L962.0590359998621 553.1179844821427Q945.7987976557995 553.1179844821427 937.5686594429875 544.8878462693308L937.5686594429875 544.8878462693308Q919.0508484641606 553.1179844821427 900.5330374853336 553.1179844821427L900.5330374853336 553.1179844821427Q886.3589105632686 553.1179844821427 878.9289246767022 545.0878843508922Q871.5275156589303 537.0577842196416 871.5275156589303 522.0549281025365Q871.5275156589303 507.0234951166368 879.1575396270581 499.9364316556042Q886.7589867263914 492.82079132577724 903.0192250704539 491.1919098044915L903.0192250704539 491.1919098044915L935.3110868082231 488.105607974687L935.3110868082231 479.24677864839634Q935.3110868082231 468.75906780082 930.7959415386944 464.2439225312912Q926.252219400371 459.70020039296793 918.4507342194763 459.70020039296793L918.4507342194763 459.70020039296793Q901.9904577938524 459.70020039296793 884.3013760100656 461.7577349461709L884.3013760100656 461.7577349461709L877.9001574001007 462.3864260596496L877.3000431554165 450.6413329851158Q899.9329232406494 446.12618771558704 917.4219669428749 446.12618771558704Q934.9110106451003 446.12618771558704 942.826803301173 454.15628784683764Q950.7425959572456 462.1863879780882 950.7425959572456 479.24677864839634ZM887.3876778398701 521.2261989074964L887.3876778398701 521.2261989074964Q887.3876778398701 540.1440860494461 903.0192250704539 540.1440860494461L903.0192250704539 540.1440860494461Q916.9933139109576 540.1440860494461 930.5959034571329 535.4289026983558L930.5959034571329 535.4289026983558L935.3110868082231 533.7714443082757L935.3110868082231 499.8221241804263L904.8767215420955 502.70838792866937Q895.6178160526821 503.5371171237095 891.502746946276 508.05226239323827Q887.3876778398701 512.5959845315615 887.3876778398701 521.2261989074964ZM1013.4973998299369 459.9002384745293L1013.4973998299369 459.9002384745293Q991.0645578262654 459.9002384745293 991.0645578262654 475.56036257390764L991.0645578262654 475.56036257390764Q991.0645578262654 482.7617335101181 996.2083942092729 485.73372786474465Q1001.3522305922803 488.70572221937124 1019.6700034895459 491.9063315243537Q1037.9877763868114 495.1069408293361 1045.5892234861446 500.8508914570278Q1053.2192474542726 506.623418953514 1053.2192474542726 522.4550042656592Q1053.2192474542726 538.3151664465989 1043.017305294641 545.7165754643709Q1032.843940003804 553.1179844821427 1013.2973617483755 553.1179844821427L1013.2973617483755 553.1179844821427Q1000.5520782660346 553.1179844821427 983.2630726453706 550.2317207338997L983.2630726453706 550.2317207338997L977.0904689857616 549.2029534572981L977.9191981808018 535.8289788614786Q1001.3522305922803 539.3439337232005 1013.2973617483755 539.3439337232005Q1025.2424929044705 539.3439337232005 1031.500827170463 535.5146333047394Q1037.78773830525 531.7139097550727 1037.78773830525 522.7693498223986Q1037.78773830525 513.8247898897245 1032.4438638406812 510.624180584742Q1027.0714125073177 507.45214814855404 1008.9822545604081 504.565884400311Q990.8645197447039 501.6796206520679 983.2630726453706 496.1357081059376Q975.6330486772429 490.5632186910128 975.6330486772429 475.56036257390764Q975.6330486772429 460.528929588008 986.2350669999971 453.3275586517975Q996.8370853227516 446.12618771558704 1012.6686706348968 446.12618771558704L1012.6686706348968 446.12618771558704Q1025.2424929044705 446.12618771558704 1044.1603800464204 449.01245146383013L1044.1603800464204 449.01245146383013L1049.9329075429064 450.04121874043165L1049.5042545109893 463.2151552546897Q1026.671336344195 459.9002384745293 1013.4973998299369 459.9002384745293ZM1072.3371726777837 499.4220480173035Q1072.3371726777837 471.2166785171458 1082.424807362237 458.6714331163664Q1092.5124420466907 446.12618771558704 1116.4884349652643 446.12618771558704Q1140.4644278838382 446.12618771558704 1150.437755093114 458.6714331163664Q1160.4110823023893 471.2166785171458 1160.4110823023893 499.4220480173035Q1160.4110823023893 527.5988406486667 1150.9521387314146 540.372700999802Q1141.4931951604397 553.1179844821427 1116.3741274900865 553.1179844821427Q1091.2836366885278 553.1179844821427 1081.824693117553 540.372700999802Q1072.3371726777837 527.5988406486667 1072.3371726777837 499.4220480173035ZM1088.1973348587233 499.10770246056416Q1088.1973348587233 521.6262750706192 1093.6555167984702 530.6851424784712Q1099.0851218694224 539.7440098863233 1116.4884349652643 539.7440098863233Q1133.8631711923122 539.7440098863233 1139.2070456568808 530.7994499536492Q1144.5794969902443 521.8548900209751 1144.5794969902443 499.2220099357421Q1144.5794969902443 476.58912985050915 1138.6069314121967 468.0446460809578Q1132.634365834149 459.5001623114065 1116.4884349652643 459.5001623114065Q1100.3425040963798 459.5001623114065 1094.2556310431544 468.0446460809578Q1088.1973348587233 476.58912985050915 1088.1973348587233 499.10770246056416ZM1249.7137972851583 531.7139097550727L1249.7137972851583 448.18372226879006L1265.1453064341808 448.18372226879006L1265.1453064341808 551.0604499289398L1249.7137972851583 551.0604499289398L1249.7137972851583 543.8590789927292Q1234.2822881361358 553.1179844821427 1219.2508551502362 553.1179844821427L1219.2508551502362 553.1179844821427Q1198.2754334550834 553.1179844821427 1191.3884080756125 542.2016206026491Q1184.4728058273467 531.3138335919499 1184.4728058273467 501.8796587336293L1184.4728058273467 501.8796587336293L1184.4728058273467 448.18372226879006L1199.9043149763693 448.18372226879006L1199.9043149763693 501.6796206520679Q1199.9043149763693 524.1124626557394 1203.8193460012137 531.7139097550727Q1207.7343770260584 539.3439337232005 1221.5084277850005 539.3439337232005L1221.5084277850005 539.3439337232005Q1228.3097225580882 539.3439337232005 1235.3110554127375 537.3721297763809Q1242.3123882673863 535.4289026983558 1245.9988043418753 533.5714062267143L1245.9988043418753 533.5714062267143L1249.7137972851583 531.7139097550727ZM1358.5630905233554 403.318038261447L1373.7659847220223 403.318038261447L1373.7659847220223 551.0604499289398L1358.5630905233554 551.0604499289398L1358.5630905233554 544.0591170742906Q1342.7029283424158 553.1179844821427 1327.2714191933935 553.1179844821427L1327.2714191933935 553.1179844821427Q1319.0412809805814 553.1179844821427 1312.8686773209724 551.0604499289398Q1306.6960736613632 549.0029153757367 1301.3521991967946 543.6590409111678L1301.3521991967946 543.6590409111678Q1290.2357972357395 532.5426389501127 1290.2357972357395 502.5940804534914Q1290.2357972357395 472.67409882566454 1300.2091244450153 459.3858548362286Q1310.2110285230851 446.12618771558704 1333.2439847714409 446.12618771558704L1333.2439847714409 446.12618771558704Q1345.1891159275362 446.12618771558704 1358.5630905233554 448.81241338226874L1358.5630905233554 448.81241338226874L1358.5630905233554 403.318038261447ZM1313.2973303528897 532.5426389501127Q1316.5836702642557 536.4576699749573 1320.2700863387442 537.8865134146816Q1323.9850792820275 539.3439337232005 1329.8433373848973 539.3439337232005Q1335.7015954877668 539.3439337232005 1343.0172738991553 537.3721297763809Q1350.3329523105438 535.4289026983558 1354.4480214169496 533.5714062267143L1354.4480214169496 533.5714062267143L1358.5630905233554 531.7139097550727L1358.5630905233554 461.9577730277323Q1345.3891540090974 459.5001623114065 1334.0727139664812 459.5001623114065L1334.0727139664812 459.5001623114065Q1318.4411667358972 459.5001623114065 1312.2685630762883 469.47348952068216Q1306.0959594166793 479.44681672995773 1306.0959594166793 500.45081529390495L1306.0959594166793 500.45081529390495Q1306.0959594166793 524.3125007373008 1313.2973303528897 532.5426389501127L1313.2973303528897 532.5426389501127ZM1464.2975050629539 467.5302624426571L1464.2975050629539 551.0604499289398L1448.8659959139316 551.0604499289398L1448.8659959139316 448.18372226879006L1464.0974669813925 448.18372226879006L1464.0974669813925 455.38509320500054Q1480.7577814885778 446.12618771558704 1495.9892525560388 446.12618771558704L1495.9892525560388 446.12618771558704Q1516.5645980880688 446.12618771558704 1523.6802384178957 457.2425896766421Q1530.7673018789283 468.35899163769716 1530.7673018789283 496.7358223506218L1530.7673018789283 496.7358223506218L1530.7673018789283 551.0604499289398L1515.5358308114671 551.0604499289398L1515.5358308114671 497.1644753825391Q1515.5358308114671 475.7604006554691 1511.3350310986777 467.84460799939643Q1507.1056545170939 459.9002384745293 1493.3316037581517 459.9002384745293L1493.3316037581517 459.9002384745293Q1486.7303470666254 459.9002384745293 1479.4432455240315 461.87204242134885Q1472.127567112643 463.8152694993739 1468.2125360877985 465.6727659710155L1468.2125360877985 465.6727659710155L1464.2975050629539 467.5302624426571ZM1629.3289223511108 538.3151664465989L1629.3289223511108 538.3151664465989L1635.301487929158 537.6864753331203L1635.7015640922812 549.8316445707768Q1612.2399548120081 553.1179844821427 1595.5796403048228 553.1179844821427L1595.5796403048228 553.1179844821427Q1573.3468363827126 553.1179844821427 1564.0879308932992 540.258393524624Q1554.8290254038855 527.3988025671053 1554.8290254038855 500.25077721234356L1554.8290254038855 500.25077721234356Q1554.8290254038855 446.12618771558704 1597.8372129395873 446.12618771558704L1597.8372129395873 446.12618771558704Q1618.6125965531785 446.12618771558704 1628.9002693191935 457.75697331494285Q1639.1879420852083 469.3877589142987 1639.1879420852083 494.278211634296L1639.1879420852083 494.278211634296L1638.3877897589628 505.9947278400353L1570.4891495032641 505.9947278400353Q1570.4891495032641 523.0836953791379 1576.6617531628729 531.3138335919499Q1582.834356822482 539.5439718047619 1598.1515584963263 539.5439718047619Q1613.4687601701708 539.5439718047619 1629.3289223511108 538.3151664465989ZM1570.260534552908 493.6495205208173L1623.756432936186 493.6495205208173Q1623.756432936186 474.73163337886757 1617.6981367517549 466.9015713291784Q1611.6398405673237 459.1000861482837 1597.951520414765 459.1000861482837Q1584.263200262206 459.1000861482837 1577.3761748827349 467.3302243610957Q1570.4891495032641 475.56036257390764 1570.260534552908 493.6495205208173L1570.260534552908 493.6495205208173ZM1678.7097516279825 467.5302624426571L1678.7097516279825 551.0604499289398L1663.27824247896 551.0604499289398L1663.27824247896 448.18372226879006L1678.509713546421 448.18372226879006L1678.509713546421 455.38509320500054Q1693.9412226954435 446.12618771558704 1708.544002649426 446.12618771558704L1708.544002649426 446.12618771558704Q1727.661927872937 446.12618771558704 1735.2919518410647 456.61389856316345L1735.2919518410647 456.61389856316345Q1742.0646697453578 452.49882945675745 1752.8667261496737 449.3267970205695Q1763.6687825539896 446.12618771558704 1771.8989207668012 446.12618771558704L1771.8989207668012 446.12618771558704Q1792.4742662988313 446.12618771558704 1799.5899066286586 457.1282822014642Q1806.676970089691 468.13037668734125 1806.676970089691 496.7358223506218L1806.676970089691 496.7358223506218L1806.676970089691 551.0604499289398L1791.2454609406684 551.0604499289398L1791.2454609406684 497.1644753825391Q1791.2454609406684 475.7604006554691 1787.1303918342626 467.84460799939643Q1783.0153227278563 459.9002384745293 1769.6413481320371 459.9002384745293L1769.6413481320371 459.9002384745293Q1762.868630227744 459.9002384745293 1755.6672592915331 461.87204242134885Q1748.4658883553227 463.8152694993739 1744.550857330478 465.6727659710155L1744.550857330478 465.6727659710155L1740.6358263056338 467.5302624426571Q1743.3220519723152 474.3029803469503 1743.3220519723152 497.56455154566186L1743.3220519723152 497.56455154566186L1743.3220519723152 551.0604499289398L1727.8905428232927 551.0604499289398L1727.8905428232927 497.9646277087847Q1727.8905428232927 475.7604006554691 1723.8612043232704 467.84460799939643Q1719.8604426920424 459.9002384745293 1706.2864300146614 459.9002384745293L1706.2864300146614 459.9002384745293Q1699.6851733231354 459.9002384745293 1692.7981479436642 461.87204242134885Q1685.911122564193 463.8152694993739 1682.1961296209097 465.6727659710155L1682.1961296209097 465.6727659710155L1678.7097516279825 467.5302624426571ZM1907.924816228555 479.24677864839634L1907.924816228555 479.24677864839634L1907.924816228555 531.9139478366341Q1908.524930473239 539.5439718047619 1919.8413705158557 540.9728152444861L1919.8413705158557 540.9728152444861L1919.2412562711713 553.1179844821427Q1902.9810179271087 553.1179844821427 1894.7508797142966 544.8878462693308L1894.7508797142966 544.8878462693308Q1876.23306873547 553.1179844821427 1857.7152577566428 553.1179844821427L1857.7152577566428 553.1179844821427Q1843.5125539657831 553.1179844821427 1836.1111449480115 545.0878843508922Q1828.7097359302395 537.0577842196416 1828.7097359302395 522.0549281025365Q1828.7097359302395 507.0234951166368 1836.3111830295727 499.9364316556042Q1843.9126301289064 492.82079132577724 1860.1728684729685 491.1919098044915L1860.1728684729685 491.1919098044915L1892.493307079532 488.105607974687L1892.493307079532 479.24677864839634Q1892.493307079532 468.75906780082 1887.949584941209 464.2439225312912Q1883.4344396716804 459.70020039296793 1875.604377621991 459.70020039296793L1875.604377621991 459.70020039296793Q1859.1441011963673 459.70020039296793 1841.4550194125807 461.7577349461709L1841.4550194125807 461.7577349461709L1835.0823776714099 462.3864260596496L1834.4536865579314 450.6413329851158Q1857.0865666431644 446.12618771558704 1874.5756103453898 446.12618771558704Q1892.0646540476152 446.12618771558704 1899.9804467036877 454.15628784683764Q1907.924816228555 462.1863879780882 1907.924816228555 479.24677864839634ZM1844.5413212423848 521.2261989074964L1844.5413212423848 521.2261989074964Q1844.5413212423848 540.1440860494461 1860.1728684729685 540.1440860494461L1860.1728684729685 540.1440860494461Q1874.175534182267 540.1440860494461 1887.7495468596478 535.4289026983558L1887.7495468596478 535.4289026983558L1892.493307079532 533.7714443082757L1892.493307079532 499.8221241804263L1862.0303649446103 502.70838792866937Q1852.771459455197 503.5371171237095 1848.6563903487906 508.05226239323827Q1844.5413212423848 512.5959845315615 1844.5413212423848 521.2261989074964ZM1991.6550417963988 448.18372226879006L1991.6550417963988 461.5576968646095L1958.9345270267124 461.5576968646095L1958.9345270267124 510.73848805992Q1958.9345270267124 528.4275698437068 1961.5064452182162 533.9714823898371Q1964.07836340972 539.5439718047619 1973.7659219310506 539.5439718047619L1973.7659219310506 539.5439718047619L1992.0551179595216 538.3151664465989L1993.0838852361233 551.0604499289398Q1979.3098344771809 553.3180225637041 1972.1084635409704 553.3180225637041L1972.1084635409704 553.3180225637041Q1956.048263278469 553.3180225637041 1949.8756596188603 545.5165373828095Q1943.703055959251 537.6864753331203 1943.703055959251 515.6822863613661L1943.703055959251 515.6822863613661L1943.703055959251 461.5576968646095L1929.100276005269 461.5576968646095L1929.100276005269 448.18372226879006L1943.703055959251 448.18372226879006L1943.703055959251 416.69201285726643L1958.9345270267124 416.69201285726643L1958.9345270267124 448.18372226879006L1991.6550417963988 448.18372226879006ZM2026.0044380873712 551.0604499289398L2010.5729289383487 551.0604499289398L2010.5729289383487 448.18372226879006L2026.0044380873712 448.18372226879006L2026.0044380873712 551.0604499289398ZM2026.0044380873712 424.9221510700784L2010.5729289383487 424.9221510700784L2010.5729289383487 407.03303120473015L2026.0044380873712 407.03303120473015L2026.0044380873712 424.9221510700784Z " fill="#8aaae5" transform="matrix(0.4318845294992206,0,0,0.43188452949922074,0,93.42182209568381)"/></g></svg>